<svg width="804" height="592" viewBox="0 0 804 592" fill="none" xmlns="http://www.w3.org/2000/svg">
<g clip-path="url(#clip0_16_94)">
<path d="M226.443 519.964C229.365 496.466 243.928 473.313 266.338 465.667C257.5 489.853 257.502 516.385 266.344 540.57C269.787 549.885 274.587 559.887 271.348 569.275C269.333 575.116 264.402 579.585 258.891 582.38C253.38 585.174 247.263 586.506 241.224 587.811L240.035 588.794C230.446 567.143 223.521 543.462 226.443 519.964Z" fill="#F0F0F0"/>
<path d="M266.561 466.111C253.51 480.733 245.399 499.096 243.379 518.592C242.87 522.781 243.024 527.024 243.836 531.165C244.757 535.174 246.735 538.862 249.564 541.848C252.146 544.685 255.115 547.287 256.963 550.702C257.882 552.464 258.419 554.401 258.538 556.385C258.657 558.369 258.355 560.356 257.652 562.215C256.021 566.893 252.806 570.706 249.533 574.325C245.899 578.344 242.06 582.461 240.515 587.789C240.328 588.434 239.337 588.106 239.524 587.461C242.212 578.192 251.21 572.927 255.501 564.578C257.504 560.682 258.344 556.159 256.467 552.047C254.826 548.451 251.766 545.764 249.127 542.914C246.324 540.042 244.268 536.528 243.137 532.678C242.116 528.591 241.799 524.361 242.198 520.168C242.946 510.714 245.176 501.437 248.805 492.675C252.893 482.653 258.664 473.404 265.87 465.328C266.317 464.828 267.004 465.614 266.561 466.111Z" fill="white"/>
<path d="M243.66 512.276C240.435 511.493 237.593 509.589 235.643 506.905C233.692 504.22 232.759 500.93 233.01 497.621C233.022 497.486 233.085 497.361 233.187 497.272C233.289 497.182 233.421 497.136 233.557 497.143C233.692 497.15 233.819 497.209 233.912 497.308C234.004 497.406 234.055 497.537 234.053 497.673C233.813 500.754 234.682 503.819 236.504 506.315C238.326 508.811 240.98 510.574 243.987 511.285C244.64 511.44 244.309 512.431 243.66 512.276Z" fill="white"/>
<path d="M248.065 540.582C253.89 537.104 258.189 531.559 260.107 525.052C260.296 524.407 261.287 524.735 261.098 525.379C259.09 532.147 254.604 537.908 248.535 541.514C247.956 541.857 247.49 540.923 248.065 540.582Z" fill="white"/>
<path d="M253.861 483.642C255.045 484.205 256.351 484.465 257.661 484.398C258.971 484.332 260.244 483.941 261.365 483.261C261.94 482.91 262.405 483.845 261.835 484.193C260.592 484.939 259.186 485.369 257.739 485.445C256.292 485.522 254.848 485.243 253.533 484.633C253.405 484.586 253.299 484.492 253.237 484.369C253.175 484.247 253.163 484.105 253.201 483.974C253.245 483.843 253.339 483.735 253.463 483.672C253.586 483.61 253.729 483.599 253.861 483.642Z" fill="white"/>
<path d="M334.648 507.637C334.295 507.866 333.943 508.095 333.59 508.333C328.871 511.436 324.411 514.918 320.255 518.744C319.929 519.034 319.603 519.334 319.286 519.633C309.373 528.957 301.276 540.041 295.408 552.32C293.078 557.208 291.122 562.267 289.559 567.452C287.401 574.613 285.631 582.549 281.359 588.406C280.92 589.022 280.444 589.611 279.932 590.168H241.326C241.239 590.124 241.151 590.089 241.062 590.045L239.521 590.115C239.583 589.842 239.653 589.56 239.715 589.287C239.75 589.129 239.794 588.97 239.829 588.812C239.856 588.706 239.882 588.6 239.9 588.503C239.909 588.468 239.918 588.433 239.926 588.406C239.944 588.31 239.97 588.221 239.988 588.133C240.376 586.557 240.775 584.98 241.186 583.403C241.186 583.395 241.186 583.395 241.194 583.386C244.211 571.342 248.646 559.699 254.406 548.7C254.583 548.374 254.759 548.039 254.953 547.713C257.62 542.844 260.681 538.202 264.104 533.832C265.987 531.445 267.989 529.155 270.103 526.97C275.576 521.336 281.901 516.599 288.846 512.93C302.692 505.62 318.723 502.819 333.52 507.284C333.899 507.399 334.269 507.514 334.648 507.637Z" fill="#F0F0F0"/>
<path d="M334.561 508.127C315.337 511.945 297.804 521.724 284.454 536.073C281.525 539.112 279.093 542.592 277.248 546.388C275.571 550.143 274.929 554.279 275.39 558.366C275.744 562.185 276.548 566.051 275.967 569.89C275.64 571.851 274.903 573.72 273.803 575.376C272.704 577.031 271.266 578.436 269.586 579.497C265.467 582.25 260.605 583.359 255.812 584.279C250.491 585.299 244.947 586.275 240.506 589.599C239.968 590.002 239.374 589.143 239.912 588.741C247.639 582.958 257.993 584.172 266.446 580.089C270.391 578.184 273.785 575.079 274.762 570.665C275.616 566.806 274.791 562.818 274.399 558.954C273.891 554.974 274.365 550.929 275.779 547.174C277.425 543.297 279.719 539.729 282.562 536.621C288.851 529.523 296.217 523.458 304.39 518.648C313.688 513.106 323.864 509.196 334.48 507.086C335.138 506.956 335.213 507.998 334.561 508.127Z" fill="white"/>
<path d="M288.481 531.2C286.377 528.633 285.255 525.402 285.313 522.084C285.372 518.766 286.608 515.577 288.801 513.086C289.247 512.584 290.049 513.253 289.602 513.756C287.556 516.071 286.405 519.042 286.356 522.132C286.308 525.222 287.366 528.227 289.339 530.606C289.767 531.123 288.906 531.714 288.481 531.2Z" fill="white"/>
<path d="M274.956 556.453C281.701 557.183 288.472 555.344 293.921 551.303C294.461 550.902 295.054 551.76 294.515 552.161C288.837 556.355 281.787 558.255 274.77 557.48C274.101 557.405 274.291 556.379 274.956 556.453Z" fill="white"/>
<path d="M313.866 514.479C314.472 515.641 315.359 516.635 316.445 517.371C317.531 518.106 318.782 518.56 320.087 518.693C320.756 518.759 320.566 519.785 319.901 519.72C318.46 519.567 317.078 519.063 315.876 518.253C314.675 517.443 313.69 516.351 313.008 515.073C312.933 514.958 312.905 514.819 312.93 514.684C312.954 514.549 313.029 514.428 313.139 514.347C313.253 514.269 313.394 514.239 313.53 514.263C313.666 514.288 313.786 514.365 313.866 514.479Z" fill="white"/>
<path d="M260.293 182.444H132.567C128.62 182.44 124.836 180.87 122.045 178.079C119.254 175.288 117.685 171.504 117.68 167.557V97.9912C117.685 94.0443 119.255 90.2603 122.045 87.4694C124.836 84.6786 128.62 83.1088 132.567 83.1045H260.293C264.24 83.1088 268.024 84.6786 270.815 87.4694C273.606 90.2603 275.176 94.0443 275.18 97.9912V167.557C275.176 171.504 273.606 175.288 270.815 178.079C268.024 180.87 264.24 182.44 260.293 182.444Z" fill="#E6E6E6"/>
<path d="M455.293 182.444H327.568C323.621 182.44 319.836 180.87 317.046 178.079C314.255 175.288 312.685 171.504 312.68 167.557V97.9912C312.685 94.0443 314.255 90.2603 317.046 87.4694C319.837 84.6786 323.621 83.1088 327.568 83.1045H455.293C459.24 83.1088 463.024 84.6786 465.815 87.4694C468.606 90.2603 470.176 94.0443 470.18 97.9912V167.557C470.176 171.504 468.606 175.288 465.815 178.079C463.024 180.87 459.24 182.44 455.293 182.444Z" fill="#6366F1"/>
<path d="M650.293 182.444H522.568C518.62 182.44 514.836 180.87 512.045 178.079C509.255 175.288 507.685 171.504 507.68 167.557V97.9912C507.685 94.0443 509.255 90.2603 512.046 87.4694C514.836 84.6786 518.621 83.1088 522.568 83.1045H650.293C654.24 83.1088 658.024 84.6786 660.815 87.4694C663.606 90.2603 665.176 94.0443 665.18 97.9912V167.557C665.176 171.504 663.606 175.288 660.815 178.079C658.024 180.87 654.24 182.44 650.293 182.444Z" fill="#E6E6E6"/>
<path d="M260.293 337.444H132.567C128.62 337.44 124.836 335.87 122.045 333.079C119.254 330.288 117.685 326.504 117.68 322.557V252.991C117.685 249.044 119.255 245.26 122.045 242.469C124.836 239.679 128.62 238.109 132.567 238.104H260.293C264.24 238.109 268.024 239.679 270.815 242.469C273.606 245.26 275.176 249.044 275.18 252.991V322.557C275.176 326.504 273.606 330.288 270.815 333.079C268.024 335.87 264.24 337.44 260.293 337.444Z" fill="#F2F2F2"/>
<path d="M455.293 337.444H327.568C323.621 337.44 319.836 335.87 317.046 333.079C314.255 330.288 312.685 326.504 312.68 322.557V252.991C312.685 249.044 314.255 245.26 317.046 242.469C319.837 239.679 323.621 238.109 327.568 238.104H455.293C459.24 238.109 463.024 239.679 465.815 242.469C468.606 245.26 470.176 249.044 470.18 252.991V322.557C470.176 326.504 468.606 330.288 465.815 333.079C463.024 335.87 459.24 337.44 455.293 337.444Z" fill="#E6E6E6"/>
<path d="M464.311 350.245C476.91 350.245 487.124 340.032 487.124 327.433C487.124 314.834 476.91 304.621 464.311 304.621C451.713 304.621 441.499 314.834 441.499 327.433C441.499 340.032 451.713 350.245 464.311 350.245Z" fill="#6C63FF"/>
<path d="M473.784 325.517H466.028V317.761C466.028 317.521 465.981 317.284 465.889 317.063C465.798 316.841 465.663 316.64 465.494 316.471C465.324 316.301 465.123 316.167 464.902 316.075C464.68 315.983 464.443 315.936 464.203 315.936C463.964 315.936 463.726 315.983 463.505 316.075C463.283 316.167 463.082 316.301 462.913 316.471C462.743 316.64 462.609 316.841 462.517 317.063C462.425 317.284 462.378 317.521 462.378 317.761V325.517H454.622C454.382 325.517 454.145 325.564 453.924 325.656C453.702 325.748 453.501 325.882 453.332 326.052C453.162 326.221 453.028 326.423 452.936 326.644C452.844 326.865 452.797 327.103 452.797 327.342C452.797 327.582 452.844 327.819 452.936 328.041C453.028 328.262 453.162 328.463 453.332 328.633C453.501 328.802 453.702 328.937 453.924 329.029C454.145 329.12 454.382 329.168 454.622 329.168H462.378V336.924C462.378 337.163 462.425 337.401 462.517 337.622C462.609 337.844 462.743 338.045 462.913 338.214C463.082 338.384 463.283 338.518 463.505 338.61C463.726 338.702 463.964 338.749 464.203 338.749C464.687 338.749 465.152 338.556 465.494 338.214C465.836 337.872 466.028 337.408 466.028 336.924V329.167H473.784C474.024 329.167 474.261 329.12 474.483 329.029C474.704 328.937 474.905 328.802 475.075 328.633C475.244 328.463 475.379 328.262 475.471 328.041C475.562 327.819 475.609 327.582 475.609 327.342C475.609 327.103 475.562 326.865 475.471 326.644C475.379 326.422 475.244 326.221 475.075 326.052C474.905 325.882 474.704 325.748 474.483 325.656C474.261 325.564 474.024 325.517 473.784 325.517Z" fill="white"/>
<path d="M662.311 199.245C674.91 199.245 685.124 189.032 685.124 176.433C685.124 163.834 674.91 153.621 662.311 153.621C649.713 153.621 639.499 163.834 639.499 176.433C639.499 189.032 649.713 199.245 662.311 199.245Z" fill="#6C63FF"/>
<path d="M671.784 174.517H664.028V166.761C664.028 166.521 663.981 166.284 663.889 166.063C663.798 165.841 663.663 165.64 663.494 165.471C663.324 165.301 663.123 165.167 662.902 165.075C662.68 164.983 662.443 164.936 662.203 164.936C661.964 164.936 661.726 164.983 661.505 165.075C661.283 165.167 661.082 165.301 660.913 165.471C660.743 165.64 660.609 165.841 660.517 166.063C660.425 166.284 660.378 166.521 660.378 166.761V174.517H652.622C652.382 174.517 652.145 174.564 651.924 174.656C651.702 174.748 651.501 174.882 651.332 175.052C651.162 175.221 651.028 175.423 650.936 175.644C650.844 175.865 650.797 176.103 650.797 176.342C650.797 176.582 650.844 176.819 650.936 177.041C651.028 177.262 651.162 177.463 651.332 177.633C651.501 177.802 651.702 177.937 651.924 178.029C652.145 178.12 652.382 178.168 652.622 178.168H660.378V185.924C660.378 186.163 660.425 186.401 660.517 186.622C660.609 186.844 660.743 187.045 660.913 187.214C661.082 187.384 661.283 187.518 661.505 187.61C661.726 187.702 661.964 187.749 662.203 187.749C662.687 187.749 663.152 187.556 663.494 187.214C663.836 186.872 664.028 186.408 664.028 185.924V178.167H671.784C672.024 178.167 672.261 178.12 672.483 178.029C672.704 177.937 672.905 177.802 673.075 177.633C673.244 177.463 673.379 177.262 673.471 177.041C673.562 176.819 673.609 176.582 673.609 176.342C673.609 176.103 673.562 175.865 673.471 175.644C673.379 175.422 673.244 175.221 673.075 175.052C672.905 174.882 672.704 174.748 672.483 174.656C672.261 174.564 672.024 174.517 671.784 174.517Z" fill="white"/>
<path d="M269.312 197.245C281.91 197.245 292.124 187.032 292.124 174.433C292.124 161.834 281.91 151.621 269.312 151.621C256.713 151.621 246.499 161.834 246.499 174.433C246.499 187.032 256.713 197.245 269.312 197.245Z" fill="#6C63FF"/>
<path d="M278.784 172.517H271.028V164.761C271.028 164.521 270.981 164.284 270.889 164.063C270.798 163.841 270.663 163.64 270.494 163.471C270.324 163.301 270.123 163.167 269.902 163.075C269.68 162.983 269.443 162.936 269.203 162.936C268.964 162.936 268.726 162.983 268.505 163.075C268.283 163.167 268.082 163.301 267.913 163.471C267.743 163.64 267.609 163.841 267.517 164.063C267.425 164.284 267.378 164.521 267.378 164.761V172.517H259.622C259.382 172.517 259.145 172.564 258.924 172.656C258.702 172.748 258.501 172.882 258.331 173.052C258.162 173.221 258.028 173.423 257.936 173.644C257.844 173.865 257.797 174.103 257.797 174.342C257.797 174.826 257.989 175.291 258.331 175.633C258.674 175.975 259.138 176.168 259.622 176.168H267.378V183.924C267.378 184.163 267.425 184.401 267.517 184.622C267.609 184.844 267.743 185.045 267.913 185.214C268.082 185.384 268.283 185.518 268.505 185.61C268.726 185.702 268.964 185.749 269.203 185.749C269.443 185.749 269.68 185.702 269.902 185.61C270.123 185.518 270.324 185.384 270.494 185.214C270.663 185.045 270.798 184.844 270.889 184.622C270.981 184.401 271.028 184.163 271.028 183.924V176.167H278.784C279.024 176.167 279.261 176.12 279.483 176.029C279.704 175.937 279.906 175.802 280.075 175.633C280.244 175.463 280.379 175.262 280.471 175.041C280.562 174.819 280.61 174.582 280.61 174.342C280.61 173.858 280.417 173.394 280.075 173.052C279.733 172.71 279.268 172.517 278.784 172.517Z" fill="white"/>
<path d="M440.102 142.92C440.518 144.179 440.653 145.514 440.498 146.83C440.342 148.147 439.9 149.414 439.202 150.541C438.504 151.669 437.567 152.629 436.458 153.355C435.349 154.082 434.093 154.556 432.781 154.744L422.233 226.745L404.93 218.294L422.333 146.424C422.163 144.198 422.814 141.987 424.165 140.209C425.515 138.432 427.471 137.212 429.661 136.78C431.851 136.348 434.124 136.734 436.048 137.866C437.972 138.998 439.415 140.796 440.102 142.92Z" fill="#E6C9B4"/>
<path d="M314.116 373.52C314.886 372.441 315.41 371.206 315.651 369.902C315.893 368.598 315.845 367.257 315.512 365.974C315.179 364.69 314.569 363.495 313.724 362.473C312.88 361.451 311.821 360.627 310.623 360.058L317.74 283.472L302.835 291.112L298.181 364.912C297.359 366.988 297.327 369.293 298.091 371.391C298.854 373.488 300.361 375.233 302.325 376.294C304.289 377.355 306.574 377.658 308.747 377.147C310.92 376.636 312.83 375.345 314.116 373.52Z" fill="#E6C9B4"/>
<path d="M324.298 334.784L388.259 332.324L391.949 265.903H318.148L324.298 334.784Z" fill="#E6C9B4"/>
<path d="M312.427 569.355L323.357 569.354L328.556 527.197H312.425L312.427 569.355Z" fill="#E6C9B4"/>
<path d="M309.716 563.963L326.994 562.932V570.335L343.42 581.679C344.231 582.24 344.842 583.044 345.164 583.977C345.486 584.909 345.501 585.919 345.207 586.86C344.914 587.802 344.327 588.625 343.533 589.209C342.739 589.793 341.778 590.108 340.792 590.108H320.223L316.677 582.786L315.293 590.108H307.537L309.716 563.963Z" fill="#2F2E41"/>
<path d="M361.041 569.355L371.971 569.354L377.17 527.197H361.039L361.041 569.355Z" fill="#E6C9B4"/>
<path d="M323.411 319.192C323.411 319.192 304.273 334.642 314.647 389.82C313.068 390.009 314.857 393.123 314.857 393.123L316.354 438.082L317.51 443.235L313.664 451.55L315.25 460.584L310.362 542.575L328.419 544.91L345.699 459.767L348.99 450.194L352.291 441.804L350.51 432.856L351.971 418.968L361.933 372.139L364.371 453.357L360.968 461.111L362.862 469.622L358.643 474.141L356.976 550.131L376.23 551.031L392.161 474.428L390.926 464.653L393.045 457.425V440.542L396.676 432.574L404.59 389.126C404.59 389.126 406.977 355.168 389.558 315.207L323.411 319.192Z" fill="#2F2E41"/>
<path d="M331.21 210.701C331.21 210.701 307.038 215.481 302.873 236.095C298.708 256.71 296.029 303.358 296.029 303.358L296.941 309.854L320.323 315.276L335.246 249.914L331.21 210.701Z" fill="#37318F"/>
<path d="M386.373 217.659C386.373 217.659 388.823 214.226 402.544 213.696C403.109 213.674 402.41 212.553 402.41 212.553L409.009 180.301L430.999 192.476L427.287 226.289L391.152 267.39L386.373 217.659Z" fill="#37318F"/>
<path d="M372.666 313.81C362.313 313.811 346.73 312.668 323.27 309.186C321.759 308.958 320.361 308.253 319.279 307.173C318.197 306.094 317.488 304.697 317.257 303.187C316.491 302.378 315.992 301.353 315.829 300.25C315.666 299.148 315.846 298.023 316.345 297.027L316.367 296.984L315.836 296.357C315.014 295.392 314.531 294.183 314.461 292.917C314.391 291.65 314.738 290.396 315.449 289.346L308.184 237.371C307.446 232.21 308.575 226.955 311.366 222.551C314.158 218.148 318.429 214.885 323.411 213.35L326.093 212.515L336.236 199.248L336.436 199.25L368.997 199.684L379.563 213.102L396.644 217.13L396.688 217.39L400.654 240.304C402.717 252.221 397.986 256.91 391.949 267.39L393.721 296.824L394.525 298.285C394.971 299.094 395.12 300.033 394.947 300.94C394.774 301.847 394.289 302.665 393.577 303.253C394.116 304.793 394.153 306.463 393.682 308.025L393.264 309.406C393.265 309.446 393.153 310.007 392.251 310.692C390.625 311.927 385.957 313.81 372.666 313.81Z" fill="#37318F"/>
<path d="M358.33 563.963L375.608 562.932V570.335L392.034 581.679C392.846 582.24 393.457 583.044 393.778 583.977C394.1 584.909 394.115 585.919 393.821 586.86C393.528 587.802 392.941 588.625 392.147 589.209C391.353 589.793 390.393 590.108 389.407 590.108H368.837L365.291 582.786L363.907 590.108H356.151L358.33 563.963Z" fill="#2F2E41"/>
<path d="M376.476 170.338C378.735 156.422 369.284 143.31 355.368 141.052C341.452 138.794 328.341 148.244 326.082 162.16C323.824 176.076 333.275 189.188 347.191 191.446C361.107 193.704 374.218 184.254 376.476 170.338Z" fill="#E6C9B4"/>
<path d="M366.206 141.306C356.85 134.871 348.611 133.891 341.843 135.716C340.966 134.359 339.736 133.267 338.285 132.556C333.006 119.256 316.943 111.269 303.158 115.151C289.283 119.059 279.71 134.428 282.321 148.604C283.939 157.391 289.469 165 291.693 173.653C295.999 190.405 285.495 209.594 269.064 214.993C284.621 218.117 301.746 208.614 307.328 193.76C310.038 186.545 310.202 178.668 310.547 170.968C310.637 165.653 311.288 160.363 312.489 155.185C313.085 152.862 313.927 150.609 315.001 148.464C317.34 143.751 321.225 139.982 326.007 137.787C325.579 139.111 325.471 140.519 325.694 141.893C325.917 143.267 326.464 144.568 327.289 145.689C323.64 150.26 321.654 155.202 321.654 158.162C314.075 172.015 324.913 183.914 338.766 191.493C344.291 194.532 350.671 195.644 356.899 194.654L357.479 192.18L358.264 194.409L360.885 201.88C363.909 203.343 366.907 204.946 369.878 206.691C368.749 201.389 367.836 196.098 367.207 190.924C366.337 183.882 369.37 173.398 371.558 167.023C372.915 163.093 373.611 158.967 373.619 154.81V154.628L375.749 161.471L383.505 158.162C382.062 149.886 383.505 140.491 366.206 141.306Z" fill="#2F2E41"/>
<path d="M685.173 591.375H117.879C117.565 591.373 117.263 591.247 117.041 591.024C116.819 590.801 116.695 590.499 116.695 590.184C116.695 589.87 116.819 589.568 117.041 589.344C117.263 589.121 117.565 588.995 117.879 588.994H685.173C685.488 588.995 685.789 589.121 686.011 589.344C686.233 589.568 686.358 589.87 686.358 590.184C686.358 590.499 686.233 590.801 686.011 591.024C685.789 591.247 685.488 591.373 685.173 591.375Z" fill="#CCCCCC"/>
<path d="M266.704 353.243C279.303 353.243 289.516 343.03 289.516 330.431C289.516 317.832 279.303 307.619 266.704 307.619C254.105 307.619 243.892 317.832 243.892 330.431C243.892 343.03 254.105 353.243 266.704 353.243Z" fill="#E6E6E6"/>
<path d="M609.939 317.32H529.926C527.453 317.317 525.083 316.334 523.335 314.585C521.586 312.837 520.603 310.466 520.6 307.994V264.415C520.603 261.943 521.586 259.572 523.335 257.824C525.083 256.075 527.453 255.092 529.926 255.089H609.939C612.411 255.092 614.782 256.075 616.53 257.824C618.279 259.572 619.262 261.943 619.265 264.415V307.994C619.262 310.466 618.279 312.837 616.53 314.585C614.782 316.334 612.411 317.317 609.939 317.32Z" fill="#F2F2F2"/>
</g>
<defs>
<clipPath id="clip0_16_94">
<rect width="803.052" height="591.375" fill="white"/>
</clipPath>
</defs>
</svg>
