<svg width="69" height="65" viewBox="0 0 69 65" fill="none" xmlns="http://www.w3.org/2000/svg">
<path d="M34 36.5C44.1 36.5 52.2 28.3 52.2 18.3C52.2 8.3 44.1 0 34 0C23.9 0 15.8 8.2 15.8 18.2C15.8 28.2 23.9 36.5 34 36.5ZM34 4.8C41.4 4.8 47.4 10.8 47.4 18.2C47.4 25.6 41.4 31.6 34 31.6C26.6 31.6 20.6 25.7 20.6 18.3C20.6 10.9 26.6 4.8 34 4.8ZM2.4 65H65.8C67.1 65 68.2 63.9 68.2 62.6C68.2 50 57.9 39.7 45.3 39.7H22.9C10.3 39.7 0 50 0 62.6C0 63.9 1.1 65 2.4 65ZM22.9 44.5H45.3C54.5 44.5 62 51.3 63.2 60.2H5C6.2 51.3 13.7 44.5 22.9 44.5Z" fill="black"/>
</svg>
